Coordinates
version=1
nRows=12
nColumns=34
inDegrees=yes

Units are S.I. units (second, meters, Newtons, ...)
If the header above contains a line with 'inDegrees', this indicates whether rotational values are in degrees (yes) or radians (no).

endheader
time	pelvis_tilt	pelvis_list	pelvis_rotation	pelvis_tx	pelvis_ty	pelvis_tz	hip_flexion_r	hip_adduction_r	hip_rotation_r	knee_angle_r	ankle_angle_r	subtalar_angle_r	mtp_angle_r	hip_flexion_l	hip_adduction_l	hip_rotation_l	knee_angle_l	ankle_angle_l	subtalar_angle_l	mtp_angle_l	lumbar_extension	lumbar_bending	lumbar_rotation	arm_flex_r	arm_add_r	arm_rot_r	elbow_flex_r	pro_sup_r	arm_flex_l	arm_add_l	arm_rot_l	elbow_flex_l	pro_sup_l
      2.98333330	     -8.23272584	     -2.70646661	    -11.92551971	      0.25934626	      0.72884078	     -0.08706846	     58.05571012	      6.90748119	     -0.80530050	      8.27453837	    -10.36002292	      3.88456104	      0.00000000	     50.88419342	      1.32706710	     -1.82698922	     71.78888417	     19.55761557	    -30.61892402	      0.00000000	    -37.97028572	    -15.12951342	      5.98624827	     84.25299890	      8.70847180	     79.04664127	    123.80904551	    103.65501304	     94.72015554	      5.89241990	     79.93886966	    120.03173103	     79.34982737
      3.00000000	     -8.19388857	     -2.81613128	    -12.39662911	      0.25616524	      0.73058655	     -0.08501390	     58.04342410	      7.35129442	     -0.92752135	      8.38498225	    -10.36315581	      3.96204771	      0.00000000	     50.93333693	      1.24504841	     -1.56740261	     72.03172335	     19.43728640	    -31.27684687	      0.00000000	    -38.47273712	    -15.34505530	      6.35557326	     84.28377142	      8.60454086	     78.80374101	    123.39619386	    103.69736139	     94.97006326	      5.86765185	     80.18933752	    120.05280832	     79.60667556
      3.01666670	     -8.02015762	     -3.23430466	    -12.98848712	      0.26030583	      0.72866053	     -0.08717376	     57.71598608	      7.88226060	     -0.90366361	      8.64698919	     -9.88140777	      4.41504476	      0.00000000	     50.58271956	      1.12075475	     -1.20436939	     72.01919287	     18.54137298	    -33.06379087	      0.00000000	    -39.08948130	    -15.17691909	      6.94564210	     84.38520645	      8.42163816	     79.12401195	    123.29230639	    103.84090439	     95.02828919	      5.84039607	     80.47094556	    120.12230320	     80.15900539
      3.03333330	     -8.25113749	     -3.46634790	    -13.61468734	      0.25934763	      0.72759738	     -0.08666044	     58.02410959	      8.31272991	     -1.02205072	      9.04034947	     -9.92319648	      4.63188076	      0.00000000	     50.89938751	      0.86514782	     -1.08015380	     72.38858081	     18.69986768	    -33.72428027	      0.00000000	    -39.41551181	    -15.21523350	      7.36890308	     84.54462087	      8.50596997	     79.08682674	    123.16000619	    103.86648459	     95.53527739	      5.66533741	     80.37303781	    120.12198667	     80.28967809
      3.05000000	     -8.63575420	     -3.73724740	    -14.13542974	      0.25959859	      0.72740163	     -0.08641054	     58.48481378	      8.55416549	     -1.58327194	      9.31048767	     -9.54157058	      5.72119939	      0.00000000	     51.33236976	      0.70631359	     -0.61529843	     72.67585662	     17.90973663	    -34.92389879	      0.00000000	    -39.67916965	    -15.05371361	      7.96615761	     84.76265705	      8.39057806	     79.23118005	    122.73650309	    103.96769750	     95.91208440	      5.81973377	     81.07411557	    120.73808185	     80.87593767
      3.06666670	     -8.90091511	     -3.95272805	    -14.68152648	      0.25944721	      0.72648041	     -0.08517133	     58.94657887	      8.88335150	     -1.61082099	      9.71951979	     -9.46234827	      5.85966788	      0.00000000	     51.63372539	      0.25259092	     -0.52065376	     72.92811056	     17.95763702	    -35.00000000	      0.00000000	    -39.95181920	    -15.06981271	      8.43036479	     84.94400152	      8.38940989	     79.06870061	    122.58783742	    103.97655010	     96.37427319	      5.45436210	     80.97625372	    120.64606161	     80.98338501
      3.08333330	     -9.16711727	     -4.05146958	    -15.25550874	      0.25915219	      0.72652287	     -0.08684737	     59.41827153	      9.03872588	     -1.61341058	     10.03319707	     -9.49696070	      6.24109803	      0.00000000	     51.87550511	      0.01040902	     -0.41874148	     73.14115283	     18.09427291	    -35.00000000	      0.00000000	    -40.20322488	    -15.00171338	      9.00160841	     85.08015931	      8.37428726	     79.00505194	    122.35980639	    103.99377529	     96.61502358	      5.28472059	     81.10023463	    120.75366459	     81.12386900
      3.10000000	     -9.55810386	     -4.15570520	    -15.48332845	      0.25712310	      0.72443045	     -0.08754218	     60.19979992	      8.85055863	     -1.89391029	     10.53942360	     -9.19118510	      6.82615945	      0.00000000	     52.60674836	     -0.02889037	     -0.14643751	     73.51796678	     18.23302723	    -35.00000000	      0.00000000	    -40.20808947	    -14.84321808	      9.35952537	     85.54543929	      8.40767742	     79.15621604	    121.92237911	    104.02768204	     96.92360855	      5.34748804	     81.30483080	    121.05430357	     81.57233078
      3.11666670	     -9.64987635	     -4.17607136	    -15.75746357	      0.25732900	      0.72467424	     -0.08816026	     60.48553402	      8.59273148	     -1.73802215	     10.78938001	     -9.19999532	      6.85789550	      0.00000000	     52.78083803	     -0.03307045	     -0.07669844	     73.77018832	     18.19350869	    -35.00000000	      0.00000000	    -40.50584784	    -14.68926972	      9.73832368	     85.72342580	      8.33231564	     79.06317769	    121.73334733	    104.02912284	     97.00818322	      5.11638269	     81.40842692	    121.05135582	     81.67083520
      3.13333330	     -9.78066966	     -4.22106199	    -15.97293276	      0.25857173	      0.72524092	     -0.08807541	     60.61953649	      8.39567764	     -1.77299524	     10.76690425	     -9.18259705	      6.80512909	      0.00000000	     52.83960602	     -0.11866358	     -0.06079306	     73.82079459	     18.17089522	    -35.00000000	      0.00000000	    -40.78317462	    -14.72221544	      9.79252199	     85.71312002	      8.29306007	     79.05300511	    121.66292224	    104.02910416	     96.98534677	      5.07768007	     81.44593914	    121.05215154	     81.68412439
      3.15000000	     -9.91439677	     -4.28749689	    -16.20549847	      0.25743911	      0.72479206	     -0.08806726	     61.08354674	      8.26699858	     -1.97347079	     11.09311335	     -9.31890873	      6.32927412	      0.00000000	     53.07750505	     -0.40949880	     -0.14921558	     74.00435067	     17.78183107	    -35.00000000	      0.00000000	    -41.00600374	    -14.58723660	     10.15246978	     86.11756369	      8.32359201	     78.73292476	    120.77234797	    104.01412158	     97.38555288	      4.95591759	     81.86277991	    121.50284858	     81.94857984
      3.16666670	     -9.98797129	     -4.26251425	    -16.24987349	      0.25860948	      0.72423594	     -0.08823716	     61.23140053	      8.00905897	     -2.09048489	     10.96570986	     -9.34918873	      6.19081348	      0.00000000	     53.10772698	     -0.51377870	     -0.29229380	     73.97472852	     17.75957527	    -35.00000000	      0.00000000	    -41.22210999	    -14.53420766	     10.16146972	     86.19200144	      8.16623426	     78.66205669	    120.59593061	    104.00874837	     97.44616830	      4.86109624	     81.93327645	    121.55768490	     81.99812427
